<?xml version="1.0" encoding="UTF-8"?>
<svg version="1.1" xmlns="http://www.w3.org/2000/svg" width="512" height="512">
<path d="M0 0 C1.01790619 0.00215515 2.03581238 0.0043103 3.08456421 0.00653076 C17.69363523 0.05620146 32.02575853 0.30709809 46.375 3.3125 C47.34985352 3.51117676 48.32470703 3.70985352 49.32910156 3.91455078 C97.7109774 14.03517194 141.69928269 35.9516877 177.375 70.3125 C178.3640332 71.26068604 178.3640332 71.26068604 179.37304688 72.22802734 C188.86130305 81.37247479 197.6012044 90.66984009 205.375 101.3125 C206.23306152 102.46355017 207.09113451 103.61459177 207.94921875 104.765625 C213.98736829 112.95680614 219.34595521 121.47054105 224.375 130.3125 C224.73948242 130.94430176 225.10396484 131.57610352 225.47949219 132.22705078 C247.08534998 169.97532572 256.85198095 212.74189997 256.6875 255.9375 C256.68534485 256.95540619 256.6831897 257.97331238 256.68096924 259.02206421 C256.63129854 273.63113523 256.38040191 287.96325853 253.375 302.3125 C253.07698486 303.77478027 253.07698486 303.77478027 252.77294922 305.26660156 C242.65232806 353.6484774 220.7358123 397.63678269 186.375 433.3125 C185.74287598 433.97185547 185.11075195 434.63121094 184.45947266 435.31054688 C175.31502521 444.79880305 166.01765991 453.5387044 155.375 461.3125 C154.22394983 462.17056152 153.07290823 463.02863451 151.921875 463.88671875 C143.73224019 469.92427396 135.22961724 475.30707302 126.375 480.3125 C125.66778809 480.7146875 124.96057617 481.116875 124.23193359 481.53125 C101.09654164 494.5566741 75.92537591 503.30551461 49.9375 508.625 C49.21860596 508.77235596 48.49971191 508.91971191 47.7590332 509.0715332 C33.08339502 511.86090125 18.55831162 512.66142619 3.64770508 512.62817383 C0.70811513 512.6250221 -2.2304558 512.64854926 -5.16992188 512.67382812 C-18.54306192 512.71848737 -31.43916711 511.51301542 -44.625 509.3125 C-46.33055054 509.03031616 -46.33055054 509.03031616 -48.07055664 508.74243164 C-91.33802759 500.97044532 -132.38793216 480.98345309 -165.625 452.3125 C-166.37007813 451.67828125 -167.11515625 451.0440625 -167.8828125 450.390625 C-181.38779833 438.57948485 -194.05918743 425.82889772 -204.625 411.3125 C-205.48149066 410.16255169 -206.33826433 409.01281411 -207.1953125 407.86328125 C-213.23534209 399.67315742 -218.61867614 391.16870382 -223.625 382.3125 C-224.0271875 381.60528809 -224.429375 380.89807617 -224.84375 380.16943359 C-237.8691741 357.03404164 -246.61801461 331.86287591 -251.9375 305.875 C-252.08485596 305.15610596 -252.23221191 304.43721191 -252.3840332 303.6965332 C-255.35789088 288.05024391 -255.99800362 272.57681954 -255.9375 256.6875 C-255.93534485 255.66959381 -255.9331897 254.65168762 -255.93096924 253.60293579 C-255.88129854 238.99386477 -255.63040191 224.66174147 -252.625 210.3125 C-252.42632324 209.33764648 -252.22764648 208.36279297 -252.02294922 207.35839844 C-241.90232806 158.9765226 -219.9858123 114.98821731 -185.625 79.3125 C-184.99287598 78.65314453 -184.36075195 77.99378906 -183.70947266 77.31445312 C-174.56502521 67.82619695 -165.26765991 59.0862956 -154.625 51.3125 C-153.47394983 50.45443848 -152.32290823 49.59636549 -151.171875 48.73828125 C-142.98224019 42.70072604 -134.47961724 37.31792698 -125.625 32.3125 C-124.91778809 31.9103125 -124.21057617 31.508125 -123.48193359 31.09375 C-100.34654164 18.0683259 -75.17537591 9.31948539 -49.1875 4 C-48.46860596 3.85264404 -47.74971191 3.70528809 -47.0090332 3.5534668 C-31.36274391 0.57960912 -15.88931954 -0.06050362 0 0 Z " fill="#FEC71A" transform="translate(255.625,-0.3125)"/>
<path d="M0 0 C1.01790619 0.00215515 2.03581238 0.0043103 3.08456421 0.00653076 C17.69363523 0.05620146 32.02575853 0.30709809 46.375 3.3125 C47.34985352 3.51117676 48.32470703 3.70985352 49.32910156 3.91455078 C97.7109774 14.03517194 141.69928269 35.9516877 177.375 70.3125 C178.3640332 71.26068604 178.3640332 71.26068604 179.37304688 72.22802734 C188.86130305 81.37247479 197.6012044 90.66984009 205.375 101.3125 C206.23306152 102.46355017 207.09113451 103.61459177 207.94921875 104.765625 C213.98736829 112.95680614 219.34595521 121.47054105 224.375 130.3125 C224.73948242 130.94430176 225.10396484 131.57610352 225.47949219 132.22705078 C247.08534998 169.97532572 256.85198095 212.74189997 256.6875 255.9375 C256.68534485 256.95540619 256.6831897 257.97331238 256.68096924 259.02206421 C256.63129854 273.63113523 256.38040191 287.96325853 253.375 302.3125 C253.07698486 303.77478027 253.07698486 303.77478027 252.77294922 305.26660156 C242.65232806 353.6484774 220.7358123 397.63678269 186.375 433.3125 C185.74287598 433.97185547 185.11075195 434.63121094 184.45947266 435.31054688 C175.31502521 444.79880305 166.01765991 453.5387044 155.375 461.3125 C154.22394983 462.17056152 153.07290823 463.02863451 151.921875 463.88671875 C143.73224019 469.92427396 135.22961724 475.30707302 126.375 480.3125 C125.66778809 480.7146875 124.96057617 481.116875 124.23193359 481.53125 C101.09654164 494.5566741 75.92537591 503.30551461 49.9375 508.625 C49.21860596 508.77235596 48.49971191 508.91971191 47.7590332 509.0715332 C33.08339502 511.86090125 18.55831162 512.66142619 3.64770508 512.62817383 C0.70811513 512.6250221 -2.2304558 512.64854926 -5.16992188 512.67382812 C-18.54306192 512.71848737 -31.43916711 511.51301542 -44.625 509.3125 C-46.33055054 509.03031616 -46.33055054 509.03031616 -48.07055664 508.74243164 C-91.33802759 500.97044532 -132.38793216 480.98345309 -165.625 452.3125 C-166.37007813 451.67828125 -167.11515625 451.0440625 -167.8828125 450.390625 C-181.38779833 438.57948485 -194.05918743 425.82889772 -204.625 411.3125 C-205.48149066 410.16255169 -206.33826433 409.01281411 -207.1953125 407.86328125 C-213.23534209 399.67315742 -218.61867614 391.16870382 -223.625 382.3125 C-224.0271875 381.60528809 -224.429375 380.89807617 -224.84375 380.16943359 C-237.8691741 357.03404164 -246.61801461 331.86287591 -251.9375 305.875 C-252.08485596 305.15610596 -252.23221191 304.43721191 -252.3840332 303.6965332 C-255.35789088 288.05024391 -255.99800362 272.57681954 -255.9375 256.6875 C-255.93534485 255.66959381 -255.9331897 254.65168762 -255.93096924 253.60293579 C-255.88129854 238.99386477 -255.63040191 224.66174147 -252.625 210.3125 C-252.42632324 209.33764648 -252.22764648 208.36279297 -252.02294922 207.35839844 C-241.90232806 158.9765226 -219.9858123 114.98821731 -185.625 79.3125 C-184.99287598 78.65314453 -184.36075195 77.99378906 -183.70947266 77.31445312 C-174.56502521 67.82619695 -165.26765991 59.0862956 -154.625 51.3125 C-153.47394983 50.45443848 -152.32290823 49.59636549 -151.171875 48.73828125 C-142.98224019 42.70072604 -134.47961724 37.31792698 -125.625 32.3125 C-124.91778809 31.9103125 -124.21057617 31.508125 -123.48193359 31.09375 C-100.34654164 18.0683259 -75.17537591 9.31948539 -49.1875 4 C-48.46860596 3.85264404 -47.74971191 3.70528809 -47.0090332 3.5534668 C-31.36274391 0.57960912 -15.88931954 -0.06050362 0 0 Z M-37.625 70.3125 C-38.49012207 70.51117676 -39.35524414 70.70985352 -40.24658203 70.91455078 C-90.15041708 82.71225218 -133.65153697 113.04133789 -161.02441406 156.53613281 C-170.34398187 171.91787719 -178.12853753 188.87551408 -182.625 206.3125 C-182.79338379 206.95606445 -182.96176758 207.59962891 -183.13525391 208.26269531 C-195.3561393 255.49029035 -188.99396118 308.10161438 -164.36279297 350.484375 C-136.85247419 395.86885703 -94.78786843 428.19503297 -43.00390625 441.05859375 C-41.2122508 441.48215671 -39.41933323 441.90042832 -37.625 442.3125 C-36.85913574 442.49184082 -36.09327148 442.67118164 -35.30419922 442.85595703 C-12.45308646 447.930063 15.63395795 447.87286463 38.375 442.3125 C39.22449219 442.11382324 40.07398438 441.91514648 40.94921875 441.71044922 C85.97774265 430.99128385 125.99677394 405.86327617 153.375 368.3125 C153.79491211 367.73693359 154.21482422 367.16136719 154.64746094 366.56835938 C177.91452733 334.20152697 189.84499211 296.10904743 189.75 256.375 C189.74945618 255.51699799 189.74891235 254.65899597 189.74835205 253.7749939 C189.70817745 239.95830643 188.85505054 226.74413651 185.375 213.3125 C185.15005859 212.44157715 184.92511719 211.5706543 184.69335938 210.67333984 C183.13203902 204.81193676 181.34761116 199.04789545 179.375 193.3125 C179.03927979 192.33240967 179.03927979 192.33240967 178.69677734 191.33251953 C170.11788005 166.92847189 155.7985923 145.25870456 138.375 126.3125 C137.87419922 125.7664209 137.37339844 125.2203418 136.85742188 124.65771484 C106.54372357 92.03080648 60.20874422 68.96265131 15.38769531 67.15136719 C13.99290464 67.13186544 12.59802479 67.11808795 11.203125 67.109375 C10.44719559 67.10231537 9.69126617 67.09525574 8.91242981 67.08798218 C-14.51883003 66.84606465 -14.51883003 66.84606465 -37.625 70.3125 Z " fill="#7049B9" transform="translate(255.625,-0.3125)"/>
<path d="M0 0 C0.63969727 0.31839844 1.27939453 0.63679687 1.93847656 0.96484375 C31.14265492 15.82121733 53.55875802 42.49206499 64.03100586 73.43554688 C74.93039287 107.77192351 71.51850194 143.20027211 55.04394531 175.06933594 C38.66307758 205.36398093 10.2550251 226.84039095 -22.28125 237.02734375 C-25.17650033 237.79306127 -28.06023639 238.430496 -31 239 C-32.46373047 239.30550781 -32.46373047 239.30550781 -33.95703125 239.6171875 C-63.13319722 244.97532616 -93.29099306 239.2955913 -119 225 C-119.94359375 224.484375 -120.8871875 223.96875 -121.859375 223.4375 C-151.37121577 206.57359099 -171.46022494 177.67968243 -180.73632812 145.44091797 C-189.26027625 112.77638541 -183.51707395 78.729126 -167.11914062 49.58007812 C-162.26522324 41.37412811 -156.3086204 34.12019249 -150 27 C-149.32582031 26.22398437 -148.65164062 25.44796875 -147.95703125 24.6484375 C-110.85448574 -15.15694245 -47.77505426 -23.96666234 0 0 Z " fill="#F28522" transform="translate(313,142)"/>
<path d="M0 0 C5.84315129 4.91244253 11.42261286 10.06722902 16.97436523 15.30541992 C17.45535109 15.75854364 17.93633694 16.21166737 18.43189812 16.67852211 C27.93281228 25.63276888 37.32980347 34.6935096 46.69006252 43.79450512 C52.63344979 49.56908997 58.60520912 55.30664233 64.65991211 60.96459961 C69.96790818 65.92490981 75.20827402 70.94668766 80.38139683 76.04762918 C83.11105193 78.73506712 85.86081834 81.3852164 88.69436455 83.9632473 C99.2762263 93.62735244 107.79030844 102.33893358 108.47423059 117.27568918 C108.60981905 125.23880425 107.89765917 133.09753276 107 141 C106.79587367 143.2552688 106.59578648 145.51090958 106.40110779 147.76701355 C101.48594193 202.53485698 74.8639222 255.68711726 37 295 C36.36787598 295.65935547 35.73575195 296.31871094 35.08447266 296.99804688 C25.94002521 306.48630305 16.64265991 315.2262044 6 323 C4.84894983 323.85806152 3.69790823 324.71613451 2.546875 325.57421875 C-5.64275981 331.61177396 -14.14538276 336.99457302 -23 342 C-23.70721191 342.4021875 -24.41442383 342.804375 -25.14306641 343.21875 C-48.27845836 356.2441741 -73.44962409 364.99301461 -99.4375 370.3125 C-100.15639404 370.45985596 -100.87528809 370.60721191 -101.6159668 370.7590332 C-108.91949209 372.14719907 -116.31184241 372.90855853 -123.69502044 373.73480606 C-125.87638642 373.98577793 -128.05358251 374.26049279 -130.23157692 374.53897095 C-144.12172726 376.22231001 -158.29191466 377.52579337 -169.89734596 368.53595591 C-175.77555701 363.62413118 -180.99174647 358.03524631 -186.15520072 352.39358711 C-188.99523546 349.33094799 -191.93856111 346.37058676 -194.87104797 343.39685059 C-200.37987568 337.78029576 -205.79356818 332.08100578 -211.17660409 326.34406233 C-217.32086827 319.80512463 -223.56790116 313.36828157 -229.82439172 306.93693447 C-242.66492915 293.73299061 -255.37475484 280.40979003 -268 267 C-263.71272226 267 -261.28049716 269.4464026 -257.9375 271.875 C-238.95719914 285.24034035 -218.49117704 294.87801164 -195.96289062 300.50488281 C-194.21398867 300.94602375 -192.47344028 301.41998653 -190.734375 301.8984375 C-176.84823872 305.64843687 -163.04596378 306.38072456 -148.75 306.3125 C-147.5271077 306.30926727 -147.5271077 306.30926727 -146.2795105 306.30596924 C-134.28119341 306.25510337 -122.70358563 305.86161925 -111 303 C-110.15050781 302.80132324 -109.30101562 302.60264648 -108.42578125 302.39794922 C-58.45780373 290.50293317 -15.49694305 260.964877 11.70996094 217.14453125 C30.00916383 186.72435748 39.45980682 153.53616676 39.375 118.0625 C39.37445618 117.20449799 39.37391235 116.34649597 39.37335205 115.4624939 C39.33317745 101.64580643 38.48005054 88.43163651 35 75 C34.77505859 74.12907715 34.55011719 73.2581543 34.31835938 72.36083984 C32.75703902 66.49943676 30.97261116 60.73539545 29 55 C28.66427979 54.01990967 28.66427979 54.01990967 28.32177734 53.02001953 C22.24741876 35.74053347 13.13242304 19.82552556 2.23828125 5.17578125 C0 2 0 2 0 0 Z " fill="#443389" transform="translate(405,138)"/>
<path d="M0 0 C0 20.46 0 40.92 0 62 C-8.58 62.99 -17.16 63.98 -26 65 C-39.08563643 68.30989627 -50.29340917 72.49050555 -62 79 C-62.94359375 79.515625 -63.8871875 80.03125 -64.859375 80.5625 C-71.0693042 84.11103097 -76.55406676 88.37946602 -82 93 C-83.2375 94.03447266 -83.2375 94.03447266 -84.5 95.08984375 C-107.81227215 115.23310391 -122.23019836 144.57581239 -126 175 C-128.54799336 211.33635611 -118.66911342 244.46188899 -95.2109375 272.37890625 C-69.77990735 301.58140468 -37.5914461 311.66252545 0 316 C0 336.46 0 356.92 0 378 C-21.11916494 378 -21.11916494 378 -27.5625 376.9375 C-28.37146729 376.80811035 -29.18043457 376.6787207 -30.01391602 376.54541016 C-71.39420321 369.38516422 -107.51832101 349.6187234 -137 320 C-137.91007812 319.08992188 -138.82015625 318.17984375 -139.7578125 317.2421875 C-157.02495579 299.08670243 -169.04345614 277.2239669 -178 254 C-178.33725098 253.13286377 -178.67450195 252.26572754 -179.02197266 251.37231445 C-195.92933209 206.60470506 -192.15574995 154.68531063 -173.07958984 111.36083984 C-151.14706045 63.39893138 -111.80511713 28.87268626 -63 10 C-58.7067484 8.44850131 -54.41934035 7.13961198 -50 6 C-49.35643555 5.83161621 -48.71287109 5.66323242 -48.04980469 5.48974609 C-31.84296291 1.29597007 -17.01861022 0 0 0 Z " fill="#FEE84D" transform="translate(256,67)"/>
<path d="M0 0 C2.04015175 -0.02215524 4.08037476 -0.03779444 6.12060547 -0.05078125 C7.82481155 -0.06492065 7.82481155 -0.06492065 9.56344604 -0.0793457 C14.87231618 0.04322942 19.93454296 0.93124242 25.125 2 C26.74015503 2.33004028 26.74015503 2.33004028 28.38793945 2.66674805 C38.52679138 4.88168799 47.741172 8.35524956 57 13 C57.63969727 13.31839844 58.27939453 13.63679687 58.93847656 13.96484375 C88.14265492 28.82121733 110.55875802 55.49206499 121.03100586 86.43554688 C131.93039287 120.77192351 128.51850194 156.20027211 112.04394531 188.06933594 C95.66307758 218.36398093 67.2550251 239.84039095 34.71875 250.02734375 C31.82271796 250.79326801 28.9414896 251.4347882 26 252 C24.43185547 252.30550781 24.43185547 252.30550781 22.83203125 252.6171875 C14.93398772 253.99486295 8.32782855 254 0 254 C0 225.95 0 197.9 0 169 C5.85074483 170.95024828 11.46146535 172.92911687 17.09765625 175.35546875 C17.8173912 175.66196854 18.53712616 175.96846832 19.27867126 176.28425598 C21.54137033 177.24871058 23.80195653 178.2180054 26.0625 179.1875 C27.61118999 179.84863097 29.16001702 180.50944102 30.70898438 181.16992188 C34.47424743 182.77624995 38.23762595 184.38691753 42 186 C41.80301514 184.92141724 41.80301514 184.92141724 41.60205078 183.82104492 C40.28656425 176.32977794 39.44213505 168.89444482 38.875 161.3125 C38.78863281 160.24966797 38.70226562 159.18683594 38.61328125 158.09179688 C38.37780793 155.06241399 38.18664036 152.03271218 38 149 C37.91919189 148.15920898 37.83838379 147.31841797 37.75512695 146.45214844 C37.49177285 142.36393041 37.64333974 139.88171349 40.30859375 136.6640625 C41.33069617 135.62999206 42.37493122 134.61744275 43.4375 133.625 C44.54686963 132.51169817 45.65361229 131.39577293 46.7578125 130.27734375 C47.30856445 129.72933105 47.85931641 129.18131836 48.42675781 128.61669922 C50.71486809 126.2653854 52.76142447 123.74602155 54.8125 121.1875 C58.42964874 116.68586599 62.16690067 112.31814345 66 108 C60.49368522 105.96680408 55.00783928 104.49705545 49.26171875 103.31640625 C48.56917999 103.17310883 47.87664124 103.0298114 47.16311646 102.88217163 C44.27042773 102.28730069 41.37684111 101.69823427 38.47924805 101.12768555 C36.3412368 100.70408359 34.20780553 100.26168378 32.07421875 99.81640625 C30.81182373 99.56318604 29.54942871 99.30996582 28.2487793 99.04907227 C22.93005146 97.33158722 20.77323795 93.96959766 18.046875 89.2890625 C17.50933594 88.37253906 16.97179687 87.45601563 16.41796875 86.51171875 C15.86753906 85.55910156 15.31710937 84.60648437 14.75 83.625 C14.21503906 82.71105469 13.68007813 81.79710937 13.12890625 80.85546875 C12.00317007 78.92754526 10.89862203 76.98713638 9.8125 75.03662109 C8.05959109 71.95604187 8.05959109 71.95604187 5.8125 69.20166016 C-2.60971971 57.49977731 -0.92262156 44.00642909 -0.54931641 30.15209961 C-0.4664591 26.74633607 -0.43072767 23.34008144 -0.390625 19.93359375 C-0.30306724 13.28780515 -0.16969984 6.64417208 0 0 Z " fill="#C65A10" transform="translate(256,129)"/>
<path d="M0 0 C3.95095717 1.31698572 4.34246491 2.84452645 6.36328125 6.43359375 C7.00330078 7.55830078 7.64332031 8.68300781 8.30273438 9.84179688 C8.97299665 11.04017426 9.64291675 12.23874308 10.3125 13.4375 C10.9698363 14.60140144 11.62803102 15.76481851 12.28710938 16.92773438 C12.93099609 18.06404297 13.57488281 19.20035156 14.23828125 20.37109375 C15.19504761 22.04969482 15.19504761 22.04969482 16.17114258 23.76220703 C17.33802103 25.82803829 18.48349365 27.90620946 19.6003418 29.99951172 C22.37819515 35.15368564 22.37819515 35.15368564 26.91796875 38.640625 C27.99691406 38.84171875 29.07585937 39.0428125 30.1875 39.25 C31.47398437 39.52070313 32.76046875 39.79140625 34.0859375 40.0703125 C34.83456055 40.20985352 35.58318359 40.34939453 36.35449219 40.49316406 C40.78897813 41.34273889 45.19250282 42.3325948 49.60083008 43.30761719 C52.05898485 43.84895128 54.51978483 44.37842141 56.9831543 44.89550781 C58.11922119 45.13881836 59.25528809 45.38212891 60.42578125 45.6328125 C61.45098877 45.84824707 62.47619629 46.06368164 63.5324707 46.28564453 C66 47 66 47 68 49 C67.45085937 49.62261719 67.45085937 49.62261719 66.890625 50.2578125 C63.96595368 53.586367 61.05708809 56.92736364 58.1796875 60.296875 C57.68146484 60.87977295 57.18324219 61.4626709 56.66992188 62.06323242 C55.63469647 63.27726651 54.6021666 64.49360398 53.57226562 65.7121582 C49.77871089 70.1772391 45.7775671 74.36761737 41.546875 78.42578125 C37.20929237 85.64413215 40.67540791 98.03728411 41.5 106.25 C41.71579122 108.4204638 41.93028162 110.59103371 42.14196777 112.76190186 C42.33326758 114.72078644 42.52881553 116.67925481 42.72460938 118.63769531 C42.95487772 121.44909211 43.05632833 124.18224214 43 127 C38.3512902 126.3358986 34.3382877 124.51055449 30.1015625 122.5859375 C28.55500422 121.90032678 27.00811884 121.21545353 25.4609375 120.53125 C23.03938993 119.45457003 20.62051555 118.37296606 18.20703125 117.27832031 C15.8659561 116.21948983 13.5161428 115.18254475 11.1640625 114.1484375 C10.45029449 113.81830658 9.73652649 113.48817566 9.00112915 113.14804077 C2.80140178 110.45484452 -1.72477361 111.02023659 -7.99169922 113.49047852 C-9.43308267 114.11138744 -10.87062447 114.74127205 -12.3046875 115.37890625 C-13.06927277 115.71043198 -13.83385803 116.0419577 -14.62161255 116.38352966 C-17.0429839 117.43519778 -19.4590833 118.49836916 -21.875 119.5625 C-24.31331303 120.627822 -26.75264466 121.69075938 -29.19265747 122.75218201 C-30.70630394 123.41155864 -32.21877161 124.07364904 -33.72994995 124.73866272 C-38.89117566 127 -38.89117566 127 -40 127 C-40.13092485 120.18736188 -39.74394319 113.58035179 -39 106.8125 C-38.73824015 104.06304851 -38.48756258 101.31279597 -38.24023438 98.56201172 C-38.08982957 96.95799947 -37.92651996 95.35508647 -37.74414062 93.75439453 C-37.09496874 87.89381505 -36.64017091 83.11036613 -39.91796875 78.0234375 C-42.4895513 75.19270322 -45.2100935 72.61407205 -48 70 C-49.5521504 68.17196904 -51.07406164 66.31777107 -52.5625 64.4375 C-56.85562967 59.11708573 -61.37879867 54.03634471 -66 49 C-63.13139264 46.13139264 -59.77440944 45.92680911 -55.921875 45.16015625 C-55.11768127 44.99253281 -54.31348755 44.82490936 -53.48492432 44.65220642 C-50.04257997 43.93472828 -46.59678893 43.23454626 -43.15087891 42.53442383 C-40.63557233 42.02070079 -38.12249045 41.49697631 -35.609375 40.97265625 C-34.45124298 40.74280785 -34.45124298 40.74280785 -33.26971436 40.50831604 C-28.01153704 39.40858705 -22.88449927 38.33310941 -19.36010742 33.96972656 C-18.94607666 33.20112305 -18.5320459 32.43251953 -18.10546875 31.640625 C-17.62883789 30.77848389 -17.15220703 29.91634277 -16.66113281 29.02807617 C-16.17483398 28.11131104 -15.68853516 27.1945459 -15.1875 26.25 C-14.14593985 24.35469398 -13.10295854 22.46016829 -12.05859375 20.56640625 C-11.5466748 19.62812988 -11.03475586 18.68985352 -10.50732422 17.72314453 C-8.34743921 13.82107823 -6.06406216 9.99956092 -3.75 6.1875 C-3.36739014 5.55424805 -2.98478027 4.92099609 -2.59057617 4.26855469 C-1.72919479 2.84440414 -0.86497691 1.42196962 0 0 Z " fill="#FEC71A" transform="translate(255,188)"/>
<path d="M0 0 C0.33 0 0.66 0 1 0 C1 35.64 1 71.28 1 108 C-8.22570902 112.61285451 -17.31943593 116.98160068 -26.8125 120.9375 C-27.98103516 121.43056641 -29.14957031 121.92363281 -30.35351562 122.43164062 C-38.8512591 126 -38.8512591 126 -40 126 C-40.13092485 119.18736188 -39.74394319 112.58035179 -39 105.8125 C-38.73824015 103.06304851 -38.48756258 100.31279597 -38.24023438 97.56201172 C-38.08982957 95.95799947 -37.92651996 94.35508647 -37.74414062 92.75439453 C-37.09496874 86.89381505 -36.64017091 82.11036613 -39.91796875 77.0234375 C-42.4895513 74.19270322 -45.2100935 71.61407205 -48 69 C-49.5521504 67.17196904 -51.07406164 65.31777107 -52.5625 63.4375 C-56.85562967 58.11708573 -61.37879867 53.03634471 -66 48 C-63.13139264 45.13139264 -59.77440944 44.92680911 -55.921875 44.16015625 C-55.11768127 43.99253281 -54.31348755 43.82490936 -53.48492432 43.65220642 C-50.04257997 42.93472828 -46.59678893 42.23454626 -43.15087891 41.53442383 C-40.63557233 41.02070079 -38.12249045 40.49697631 -35.609375 39.97265625 C-34.45124298 39.74280785 -34.45124298 39.74280785 -33.26971436 39.50831604 C-27.99195866 38.4044923 -22.86981256 37.32858109 -19.34423828 32.93798828 C-18.71364502 31.76598877 -18.71364502 31.76598877 -18.0703125 30.5703125 C-17.34775269 29.26175293 -17.34775269 29.26175293 -16.6105957 27.92675781 C-16.12034912 27.00217773 -15.63010254 26.07759766 -15.125 25.125 C-14.0810765 23.22565501 -13.03550235 21.32721632 -11.98828125 19.4296875 C-11.48248535 18.50381836 -10.97668945 17.57794922 -10.45556641 16.62402344 C-8.50346293 13.10486743 -6.43764768 9.66672879 -4.3125 6.25 C-3.68988281 5.24453125 -3.06726563 4.2390625 -2.42578125 3.203125 C-1 1 -1 1 0 0 Z " fill="#FEE84C" transform="translate(255,189)"/>
</svg>
