<?xml version="1.0" encoding="UTF-8"?>
<svg version="1.1" xmlns="http://www.w3.org/2000/svg" width="512" height="512">
<path d="M0 0 C1.01790619 0.00215515 2.03581238 0.0043103 3.08456421 0.00653076 C17.69363523 0.05620146 32.02575853 0.30709809 46.375 3.3125 C47.34985352 3.51117676 48.32470703 3.70985352 49.32910156 3.91455078 C97.7109774 14.03517194 141.69928269 35.9516877 177.375 70.3125 C178.3640332 71.26068604 178.3640332 71.26068604 179.37304688 72.22802734 C188.86130305 81.37247479 197.6012044 90.66984009 205.375 101.3125 C206.23306152 102.46355017 207.09113451 103.61459177 207.94921875 104.765625 C213.98736829 112.95680614 219.34595521 121.47054105 224.375 130.3125 C224.73948242 130.94430176 225.10396484 131.57610352 225.47949219 132.22705078 C247.08534998 169.97532572 256.85198095 212.74189997 256.6875 255.9375 C256.68534485 256.95540619 256.6831897 257.97331238 256.68096924 259.02206421 C256.63129854 273.63113523 256.38040191 287.96325853 253.375 302.3125 C253.07698486 303.77478027 253.07698486 303.77478027 252.77294922 305.26660156 C242.65232806 353.6484774 220.7358123 397.63678269 186.375 433.3125 C185.74287598 433.97185547 185.11075195 434.63121094 184.45947266 435.31054688 C175.31502521 444.79880305 166.01765991 453.5387044 155.375 461.3125 C154.22394983 462.17056152 153.07290823 463.02863451 151.921875 463.88671875 C143.73224019 469.92427396 135.22961724 475.30707302 126.375 480.3125 C125.66778809 480.7146875 124.96057617 481.116875 124.23193359 481.53125 C101.09654164 494.5566741 75.92537591 503.30551461 49.9375 508.625 C49.21860596 508.77235596 48.49971191 508.91971191 47.7590332 509.0715332 C33.08339502 511.86090125 18.55831162 512.66142619 3.64770508 512.62817383 C0.70811513 512.6250221 -2.2304558 512.64854926 -5.16992188 512.67382812 C-18.54306192 512.71848737 -31.43916711 511.51301542 -44.625 509.3125 C-46.33055054 509.03031616 -46.33055054 509.03031616 -48.07055664 508.74243164 C-109.33381836 497.7379236 -167.76195468 461.60504511 -204.625 411.3125 C-205.26211914 410.45857666 -205.26211914 410.45857666 -205.91210938 409.58740234 C-212.42768015 400.84658179 -218.26088547 391.80163672 -223.625 382.3125 C-224.0271875 381.60528809 -224.429375 380.89807617 -224.84375 380.16943359 C-237.8691741 357.03404164 -246.61801461 331.86287591 -251.9375 305.875 C-252.08485596 305.15610596 -252.23221191 304.43721191 -252.3840332 303.6965332 C-255.35789088 288.05024391 -255.99800362 272.57681954 -255.9375 256.6875 C-255.93534485 255.66959381 -255.9331897 254.65168762 -255.93096924 253.60293579 C-255.88129854 238.99386477 -255.63040191 224.66174147 -252.625 210.3125 C-252.42632324 209.33764648 -252.22764648 208.36279297 -252.02294922 207.35839844 C-241.90232806 158.9765226 -219.9858123 114.98821731 -185.625 79.3125 C-184.99287598 78.65314453 -184.36075195 77.99378906 -183.70947266 77.31445312 C-174.56502521 67.82619695 -165.26765991 59.0862956 -154.625 51.3125 C-153.47394983 50.45443848 -152.32290823 49.59636549 -151.171875 48.73828125 C-142.98224019 42.70072604 -134.47961724 37.31792698 -125.625 32.3125 C-124.91778809 31.9103125 -124.21057617 31.508125 -123.48193359 31.09375 C-100.34654164 18.0683259 -75.17537591 9.31948539 -49.1875 4 C-48.46860596 3.85264404 -47.74971191 3.70528809 -47.0090332 3.5534668 C-31.36274391 0.57960912 -15.88931954 -0.06050362 0 0 Z M-115.625 134.3125 C-120.77787625 141.53701606 -121.78461289 148.59352382 -120.625 157.3125 C-118.66913134 164.91737754 -114.1262695 170.54626529 -107.4765625 174.6328125 C-98.78586319 178.76161649 -88.16308081 178.93261687 -79.125 175.75 C-72.7072935 172.73869678 -67.72784889 167.69057828 -64.625 161.3125 C-62.3754617 154.06577306 -62.49923524 145.76374255 -65.6875 138.875 C-70.04601091 131.38418877 -75.54197481 127.67146174 -83.734375 125.0078125 C-95.12938857 122.26684978 -107.91422055 125.03953666 -115.625 134.3125 Z M23.375 211.3125 C20.53789271 214.55160784 17.9621721 217.8629372 15.375 221.3125 C14.88 210.9175 14.88 210.9175 14.375 200.3125 C-2.455 200.3125 -19.285 200.3125 -36.625 200.3125 C-36.625 251.7925 -36.625 303.2725 -36.625 356.3125 C-19.795 356.3125 -2.965 356.3125 14.375 356.3125 C14.40078125 349.58230469 14.4265625 342.85210937 14.453125 335.91796875 C14.47830968 331.63863448 14.50465515 327.35936975 14.53515625 323.08007812 C14.58339393 316.29695426 14.62747528 309.51399149 14.64599609 302.73071289 C14.66120833 297.25808463 14.69573506 291.78587955 14.74330902 286.31344032 C14.75807576 284.23204553 14.76603829 282.1505903 14.76688385 280.0691433 C14.78817003 253.92993212 14.78817003 253.92993212 24.40234375 243.96875 C30.76581366 238.62595546 38.21789257 237.21819818 46.375 237.3125 C52.60355412 237.86791247 58.02851385 239.67335767 62.375 244.3125 C68.17645784 253.1147119 69.66714813 262.52293875 69.69384766 272.87133789 C69.70389328 273.77973419 69.7139389 274.68813049 69.72428894 275.62405396 C69.75491381 278.59441558 69.77209805 281.56468795 69.7890625 284.53515625 C69.80779083 286.6073838 69.82736546 288.67960386 69.8477478 290.7518158 C69.89889914 296.18174811 69.93861553 301.61170511 69.97589111 307.04174805 C70.02310758 313.56981354 70.08463212 320.0977582 70.14373779 326.62572479 C70.23174262 336.5212673 70.30165555 346.41678908 70.375 356.3125 C87.205 356.3125 104.035 356.3125 121.375 356.3125 C121.46239147 338.37208431 121.46239147 338.37208431 121.52148438 320.43164062 C121.53935335 313.10450649 121.56039406 305.77748582 121.60131836 298.45043945 C121.63413649 292.53708218 121.65190003 286.62384674 121.65963173 280.71040535 C121.66513518 278.46479439 121.67588096 276.21918939 121.69219017 273.97363091 C121.85645224 250.39951911 119.39605122 229.22015298 102.6875 211.125 C90.49134046 199.49391349 75.28172989 195.99232988 58.8984375 196.1640625 C45.33907585 196.73529947 33.13441918 201.8305225 23.375 211.3125 Z M-117.625 200.3125 C-117.625 251.7925 -117.625 303.2725 -117.625 356.3125 C-100.795 356.3125 -83.965 356.3125 -66.625 356.3125 C-66.625 304.8325 -66.625 253.3525 -66.625 200.3125 C-83.455 200.3125 -100.285 200.3125 -117.625 200.3125 Z " fill="#000000" transform="translate(255.625,-0.3125)"/>
</svg>
